<svg width="192" height="192" viewBox="0 0 192 192" fill="none" xmlns="http://www.w3.org/2000/svg">
<rect width="192" height="192" fill="#18181B"/>
<path d="M139.367 52.0735C128.274 36.196 106.364 31.4899 90.5229 41.583L62.7013 59.315C58.9429 61.6795 55.7192 64.8021 53.2363 68.4834C50.7533 72.1646 49.0658 76.3234 48.2815 80.694C46.9544 88.0559 48.1208 95.6502 51.5963 102.275C49.2148 105.887 47.5906 109.945 46.8217 114.203C46.0291 118.662 46.1348 123.234 47.1325 127.651C48.1303 132.068 50 136.241 52.6321 139.926C63.7278 155.805 85.6372 160.509 101.476 150.417L129.298 132.685C133.056 130.321 136.28 127.198 138.763 123.517C141.246 119.836 142.934 115.677 143.718 111.306C145.045 103.944 143.879 96.3498 140.405 89.7248C142.786 86.1123 144.41 82.0546 145.178 77.7969C145.971 73.3383 145.866 68.7663 144.868 64.349C143.87 59.9317 142 55.7582 139.367 52.0735Z" fill="#FF3E00"/>
<path d="M87.805 141.42C83.4268 142.559 78.8046 142.326 74.5628 140.754C70.321 139.181 66.6639 136.345 64.0855 132.628C62.5023 130.412 61.3777 127.902 60.7775 125.246C60.1773 122.59 60.1137 119.84 60.5904 117.159C60.7518 116.279 60.974 115.41 61.2553 114.561L61.7792 112.963L63.2046 114.01C66.4964 116.429 70.177 118.268 74.0878 119.448L75.1218 119.761L75.0266 120.793C74.9002 122.262 75.2978 123.727 76.1487 124.93C76.9247 126.05 78.0256 126.904 79.3027 127.378C80.5799 127.852 81.9717 127.923 83.2903 127.581C83.8949 127.419 84.4712 127.166 84.9992 126.83L112.821 109.1C113.502 108.671 114.086 108.105 114.536 107.438C114.986 106.772 115.293 106.018 115.435 105.227C115.578 104.418 115.559 103.59 115.378 102.789C115.197 101.989 114.858 101.232 114.382 100.564C113.606 99.4442 112.504 98.5894 111.227 98.1151C109.949 97.6409 108.557 97.5699 107.238 97.9119C106.634 98.0735 106.058 98.3266 105.531 98.6624L94.9144 105.43C93.1686 106.54 91.2634 107.377 89.2648 107.911C84.8866 109.05 80.2645 108.817 76.0227 107.245C71.781 105.672 68.1239 102.836 65.5455 99.1191C63.9623 96.9032 62.8376 94.3934 62.2374 91.737C61.6373 89.0806 61.5737 86.3311 62.0505 83.6498C62.522 81.0217 63.5368 78.5209 65.0301 76.3074C66.5234 74.094 68.4621 72.2165 70.7225 70.7951L98.5423 53.0637C100.289 51.9519 102.195 51.1142 104.196 50.5798C108.574 49.4414 113.196 49.6741 117.438 51.2464C121.679 52.8187 125.336 55.6549 127.915 59.3719C129.498 61.5878 130.623 64.0976 131.223 66.754C131.823 69.4104 131.887 72.1599 131.41 74.8412C131.248 75.7214 131.026 76.5894 130.745 77.4393L130.221 79.0369L128.796 77.9916C125.505 75.5715 121.824 73.7317 117.912 72.5516L116.878 72.2378L116.974 71.2058C117.099 69.7378 116.702 68.2727 115.852 67.0693C115.076 65.9496 113.975 65.0951 112.698 64.621C111.42 64.147 110.029 64.0763 108.71 64.4186C108.105 64.5802 107.529 64.8335 107.001 65.1696L79.1788 82.9003C78.4981 83.3286 77.9143 83.8942 77.4646 84.5609C77.0148 85.2276 76.7091 85.9808 76.5668 86.7723C76.4232 87.5804 76.4422 88.4091 76.6227 89.2098C76.8032 90.0105 77.1417 90.7671 77.6182 91.4354C78.3946 92.5553 79.4959 93.4101 80.7735 93.8843C82.051 94.3586 83.4433 94.4296 84.7625 94.0876C85.367 93.9257 85.9432 93.6724 86.4713 93.3366L97.0866 86.5712C98.8317 85.4597 100.737 84.6224 102.736 84.0882C107.114 82.9499 111.736 83.1826 115.978 84.7549C120.219 86.3272 123.876 89.1634 126.455 92.8805C128.038 95.0963 129.163 97.6061 129.763 100.262C130.363 102.919 130.427 105.668 129.95 108.35C129.478 110.978 128.463 113.479 126.97 115.693C125.477 117.906 123.538 119.784 121.278 121.206L93.4579 138.936C91.7114 140.048 89.8053 140.886 87.805 141.42Z" fill="white"/>
</svg>
