<svg width="180" height="180" viewBox="0 0 180 180" fill="none" xmlns="http://www.w3.org/2000/svg">
<rect width="180" height="180" fill="#18181B"/>
<path d="M130.657 48.8189C120.257 33.9338 99.7166 29.5218 84.8652 38.9841L58.7825 55.6078C55.259 57.8245 52.2367 60.752 49.909 64.2032C47.5812 67.6543 45.9991 71.5532 45.2639 75.6506C44.0197 82.5524 45.1133 89.6721 48.3715 95.8824C46.1389 99.2691 44.6161 103.073 43.8953 107.065C43.1522 111.245 43.2513 115.531 44.1867 119.673C45.1221 123.814 46.875 127.726 49.3426 131.181C59.7448 146.067 80.2849 150.478 95.134 141.016L121.217 124.392C124.74 122.176 127.763 119.248 130.091 115.797C132.418 112.346 134 108.447 134.735 104.349C135.979 97.4475 134.887 90.328 131.63 84.117C133.862 80.7303 135.384 76.9262 136.104 72.9346C136.848 68.7547 136.749 64.4684 135.814 60.3272C134.878 56.186 133.125 52.2734 130.657 48.8189Z" fill="#FF3E00"/>
<path d="M82.3173 132.581C78.2127 133.649 73.8794 133.431 69.9027 131.957C65.926 130.483 62.4975 127.824 60.0802 124.339C58.596 122.261 57.5416 119.909 56.979 117.418C56.4163 114.928 56.3567 112.35 56.8036 109.836C56.9549 109.011 57.1632 108.197 57.4269 107.401L57.9181 105.903L59.2544 106.884C62.3405 109.152 65.7911 110.876 69.4574 111.982L70.4268 112.276L70.3375 113.244C70.219 114.62 70.5917 115.994 71.3895 117.122C72.117 118.172 73.1491 118.973 74.3464 119.417C75.5437 119.861 76.8485 119.928 78.0847 119.607C78.6516 119.455 79.1919 119.218 79.6868 118.903L105.77 102.281C106.408 101.879 106.956 101.349 107.378 100.724C107.8 100.098 108.087 99.3922 108.221 98.65C108.355 97.8923 108.336 97.1156 108.167 96.3651C107.997 95.6146 107.68 94.9054 107.233 94.2788C106.505 93.2289 105.473 92.4275 104.275 91.9829C103.077 91.5383 101.772 91.4718 100.536 91.7924C99.9694 91.9439 99.4298 92.1812 98.9355 92.496L88.9823 98.8409C87.3456 99.8815 85.5595 100.666 83.6858 101.167C79.5812 102.234 75.248 102.016 71.2714 100.542C67.2947 99.0677 63.8663 96.4088 61.449 92.9241C59.9647 90.8467 58.9103 88.4938 58.3477 86.0034C57.785 83.5131 57.7254 80.9354 58.1724 78.4217C58.6144 75.9578 59.5659 73.6133 60.9658 71.5382C62.3657 69.463 64.1833 67.7029 66.3024 66.3704L92.3835 49.7472C94.0209 48.7049 95.8083 47.9195 97.6835 47.4185C101.788 46.3513 106.121 46.5695 110.098 48.0435C114.074 49.5175 117.503 52.1764 119.92 55.6611C121.404 57.7385 122.459 60.0914 123.021 62.5818C123.584 65.0722 123.644 67.6499 123.197 70.1636C123.045 70.9888 122.837 71.8026 122.574 72.5993L122.082 74.0971L120.747 73.1171C117.661 70.8482 114.21 69.1234 110.543 68.0171L109.574 67.7229L109.663 66.7554C109.78 65.3791 109.408 64.0056 108.611 62.8774C107.883 61.8277 106.851 61.0266 105.654 60.5822C104.457 60.1378 103.152 60.0715 101.916 60.3924C101.349 60.5439 100.809 60.7814 100.314 61.0965L74.2302 77.719C73.5921 78.1205 73.0447 78.6508 72.6231 79.2758C72.2015 79.9008 71.9148 80.6069 71.7815 81.349C71.6468 82.1066 71.6646 82.8835 71.8339 83.6341C72.0031 84.3848 72.3204 85.0941 72.7671 85.7207C73.495 86.7706 74.5275 87.5719 75.7252 88.0165C76.9229 88.4612 78.2282 88.5277 79.4649 88.2071C80.0316 88.0553 80.5718 87.8178 81.0669 87.503L91.0188 81.1605C92.6548 80.1185 94.4408 79.3334 96.3147 78.8327C100.419 77.7655 104.752 77.9836 108.729 79.4577C112.706 80.9317 116.134 83.5907 118.552 87.0754C120.036 89.1528 121.09 91.5057 121.653 93.996C122.215 96.4864 122.275 99.0641 121.828 101.578C121.386 104.042 120.434 106.386 119.034 108.462C117.634 110.537 115.817 112.298 113.698 113.631L87.6169 130.253C85.9795 131.295 84.1925 132.08 82.3173 132.581Z" fill="white"/>
</svg>
