<svg width="512" height="512" viewBox="0 0 512 512" fill="none" xmlns="http://www.w3.org/2000/svg">
<rect width="512" height="512" fill="#18181B"/>
<path d="M371.646 138.863C342.063 96.5228 283.638 83.9731 241.394 110.888L167.204 158.173C157.181 164.479 148.585 172.806 141.963 182.622C135.342 192.439 130.842 203.529 128.751 215.184C125.212 234.816 128.322 255.067 137.59 272.732C131.24 282.366 126.908 293.187 124.858 304.541C122.744 316.431 123.026 328.623 125.687 340.402C128.348 352.181 133.334 363.31 140.352 373.137C169.941 415.481 228.366 428.025 270.604 401.112L344.794 353.826C354.817 347.522 363.414 339.195 370.036 329.378C376.657 319.561 381.157 308.471 383.247 296.816C386.786 277.184 383.678 256.933 374.414 239.266C380.763 229.633 385.093 218.812 387.141 207.458C389.256 195.569 388.975 183.377 386.314 171.597C383.654 159.818 378.666 148.689 371.646 138.863Z" fill="#FF3E00"/>
<path d="M234.147 377.121C222.471 380.157 210.145 379.536 198.834 375.343C187.523 371.15 177.77 363.587 170.894 353.675C166.673 347.766 163.674 341.073 162.073 333.989C160.473 326.906 160.303 319.574 161.574 312.424C162.005 310.076 162.597 307.761 163.347 305.495L164.744 301.235L168.545 304.027C177.324 310.477 187.139 315.381 197.567 318.527L200.325 319.364L200.071 322.116C199.734 326.031 200.794 329.939 203.063 333.147C205.132 336.133 208.068 338.411 211.474 339.675C214.879 340.939 218.591 341.128 222.107 340.215C223.72 339.784 225.256 339.109 226.664 338.212L300.857 290.933C302.672 289.79 304.23 288.281 305.43 286.503C306.63 284.724 307.447 282.716 307.828 280.604C308.208 278.449 308.156 276.24 307.674 274.105C307.191 271.97 306.289 269.953 305.019 268.171C302.948 265.184 300.011 262.905 296.605 261.64C293.198 260.376 289.485 260.186 285.967 261.098C284.357 261.529 282.822 262.204 281.416 263.1L253.105 281.147C248.449 284.107 243.369 286.339 238.039 287.763C226.364 290.799 214.038 290.178 202.727 285.986C191.416 281.793 181.664 274.23 174.788 264.317C170.566 258.408 167.567 251.716 165.966 244.632C164.366 237.548 164.196 230.216 165.468 223.066C166.725 216.058 169.431 209.389 173.413 203.486C177.395 197.584 182.565 192.577 188.593 188.787L262.779 141.503C267.437 138.538 272.521 136.304 277.855 134.879C289.53 131.844 301.855 132.464 313.167 136.657C324.478 140.85 334.23 148.413 341.106 158.325C345.328 164.234 348.327 170.927 349.927 178.011C351.528 185.094 351.697 192.426 350.426 199.576C349.994 201.924 349.401 204.238 348.653 206.505L347.256 210.765L343.457 207.978C334.679 201.524 324.863 196.618 314.433 193.471L311.676 192.634L311.93 189.882C312.264 185.967 311.204 182.061 308.937 178.851C306.868 175.866 303.932 173.587 300.527 172.323C297.121 171.059 293.409 170.87 289.893 171.783C288.281 172.214 286.744 172.889 285.336 173.786L211.143 221.067C209.328 222.21 207.771 223.718 206.572 225.496C205.373 227.274 204.557 229.282 204.178 231.393C203.795 233.548 203.846 235.757 204.327 237.893C204.808 240.028 205.711 242.046 206.982 243.828C209.052 246.814 211.989 249.094 215.396 250.358C218.803 251.623 222.515 251.812 226.033 250.9C227.645 250.468 229.182 249.793 230.59 248.897L258.897 230.857C263.551 227.893 268.631 225.66 273.961 224.235C285.637 221.2 297.962 221.82 309.273 226.013C320.585 230.206 330.337 237.769 337.213 247.681C341.435 253.59 344.434 260.283 346.034 267.367C347.635 274.45 347.804 281.782 346.533 288.932C345.275 295.941 342.568 302.61 338.586 308.514C334.604 314.417 329.435 319.425 323.407 323.217L249.221 370.497C244.564 373.462 239.48 375.696 234.147 377.121Z" fill="white"/>
</svg>
