<svg width="32" height="32" viewBox="0 0 32 32" fill="none" xmlns="http://www.w3.org/2000/svg">
<rect width="32" height="32" fill="#18181B"/>
<path d="M23.228 8.67892C21.3792 6.03268 17.7276 5.24832 15.0874 6.93051L10.4504 9.88583C9.82402 10.2799 9.28674 10.8004 8.87291 11.4139C8.45909 12.0274 8.17783 12.7206 8.04712 13.449C7.82593 14.676 8.02034 15.9417 8.59958 17.0458C8.20267 17.6479 7.93196 18.3242 7.80381 19.0338C7.67172 19.7769 7.68933 20.5389 7.85563 21.2751C8.02192 22.0113 8.33354 22.7069 8.77222 23.3211C10.6215 25.9676 14.2731 26.7516 16.9129 25.0695L21.5498 22.1142C22.1763 21.7201 22.7136 21.1997 23.1274 20.5861C23.5413 19.9726 23.8225 19.2794 23.9531 18.551C24.1743 17.324 23.98 16.0583 23.4011 14.9541C23.7979 14.3521 24.0685 13.6758 24.1965 12.9662C24.3287 12.2231 24.3111 11.461 24.1448 10.7248C23.9785 9.98863 23.6668 9.29305 23.228 8.67892Z" fill="#FF3E00"/>
<path d="M14.6343 23.57C13.9046 23.7598 13.1342 23.721 12.4273 23.459C11.7203 23.1969 11.1108 22.7242 10.681 22.1047C10.4172 21.7354 10.2297 21.3171 10.1297 20.8743C10.0297 20.4316 10.0191 19.9734 10.0985 19.5265C10.1254 19.3798 10.1625 19.2351 10.2093 19.0935L10.2967 18.8272L10.5342 19.0017C11.0829 19.4048 11.6963 19.7113 12.3481 19.9079L12.5204 19.9602L12.5046 20.1322C12.4835 20.3769 12.5498 20.6212 12.6916 20.8217C12.8209 21.0083 13.0044 21.1507 13.2172 21.2297C13.4301 21.3087 13.6621 21.3205 13.8818 21.2635C13.9826 21.2365 14.0787 21.1943 14.1667 21.1383L18.8037 18.1833C18.9172 18.1118 19.0145 18.0175 19.0895 17.9064C19.1645 17.7953 19.2155 17.6697 19.2394 17.5378C19.2632 17.4031 19.2599 17.265 19.2297 17.1316C19.1996 16.9981 19.1432 16.8721 19.0638 16.7607C18.9344 16.574 18.7508 16.4316 18.5379 16.3525C18.325 16.2735 18.0929 16.2617 17.8731 16.3186C17.7724 16.3456 17.6765 16.3878 17.5886 16.4437L15.8192 17.5717C15.5282 17.7567 15.2107 17.8962 14.8776 17.9852C14.1479 18.1749 13.3775 18.1362 12.6706 17.8741C11.9636 17.612 11.3541 17.1393 10.9244 16.5198C10.6605 16.1505 10.4731 15.7322 10.373 15.2895C10.273 14.8468 10.2624 14.3885 10.3419 13.9416C10.4205 13.5036 10.5896 13.0868 10.8385 12.7179C11.0873 12.349 11.4105 12.0361 11.7872 11.7992L16.4238 8.84395C16.7149 8.65864 17.0327 8.51903 17.3661 8.42996C18.0958 8.24024 18.8661 8.27902 19.5731 8.54107C20.28 8.80312 20.8895 9.27581 21.3193 9.89531C21.5831 10.2646 21.7706 10.6829 21.8706 11.1257C21.9706 11.5684 21.9812 12.0266 21.9018 12.4735C21.8747 12.6202 21.8377 12.7649 21.791 12.9065L21.7036 13.1728L21.4662 12.9986C20.9176 12.5952 20.3041 12.2886 19.6522 12.0919L19.4799 12.0396L19.4957 11.8676C19.5166 11.623 19.4504 11.3788 19.3087 11.1782C19.1794 10.9916 18.9959 10.8492 18.783 10.7702C18.5702 10.6912 18.3382 10.6794 18.1185 10.7364C18.0177 10.7634 17.9216 10.8056 17.8336 10.8616L13.1966 13.8167C13.0831 13.8881 12.9858 13.9824 12.9109 14.0935C12.8359 14.2046 12.785 14.3301 12.7613 14.462C12.7373 14.5967 12.7405 14.7348 12.7706 14.8683C12.8007 15.0017 12.8571 15.1279 12.9365 15.2392C13.0659 15.4259 13.2494 15.5683 13.4624 15.6474C13.6753 15.7264 13.9073 15.7383 14.1272 15.6813C14.228 15.6543 14.324 15.6121 14.412 15.5561L16.1812 14.4285C16.4721 14.2433 16.7896 14.1037 17.1227 14.0147C17.8524 13.825 18.6228 13.8638 19.3297 14.1258C20.0367 14.3879 20.6462 14.8606 21.0759 15.4801C21.3398 15.8494 21.5272 16.2677 21.6273 16.7104C21.7273 17.1531 21.7379 17.6114 21.6584 18.0583C21.5798 18.4963 21.4106 18.9131 21.1618 19.2821C20.9129 19.6511 20.5898 19.9641 20.2131 20.2011L15.5764 23.1561C15.2854 23.3414 14.9677 23.481 14.6343 23.57Z" fill="white"/>
</svg>
